<svg width="106" height="106" viewBox="0 0 106 106" fill="none" xmlns="http://www.w3.org/2000/svg">
<path d="M0 10C0 4.47715 4.47715 0 10 0H96C101.523 0 106 4.47715 106 10V96C106 101.523 101.523 106 96 106H10C4.47715 106 0 101.523 0 96V10Z" fill="#ED225C"/>
<path d="M79.0764 51.5535C79.0764 52.0253 79.0764 52.4971 79.0764 52.9689C78.4631 54.2427 77.4487 55.0212 76.1513 55.1391C76.1513 59.2437 76.1513 63.2539 76.1513 67.2642C76.1513 70.1893 76.0334 70.3072 73.1554 70.4487C73.0847 70.4487 73.0139 70.5195 72.9903 70.5195C72.8016 71.0621 72.6365 71.581 72.4714 72.0764C72.2355 72.0764 71.9996 72.0764 71.7637 72.0764C71.5278 71.581 71.2919 71.0857 70.9852 70.4959C70.2068 70.4959 69.2396 70.4959 68.4375 70.4959C68.1781 71.0857 67.9422 71.581 67.7299 72.0764C67.494 72.0764 67.2581 72.0764 67.0222 72.0764C66.8099 71.5574 66.5976 71.0385 66.3617 70.4723C65.7248 70.4723 65.0171 70.4723 64.3801 70.4723C64.1443 71.0385 63.9319 71.5574 63.7196 72.0764C63.4837 72.0764 63.2478 72.0764 63.012 72.0764C62.7996 71.581 62.5638 71.0857 62.3043 70.4723C61.5258 70.4723 60.5586 70.4723 59.7802 70.4723C59.4971 71.0857 59.2612 71.581 59.0253 72.0764C58.7894 72.0764 58.5535 72.0764 58.3176 72.0764C58.1289 71.5339 57.9402 71.0149 57.7515 70.4252C57.5628 70.4252 57.3505 70.4252 57.1618 70.4252C55.0387 70.4016 54.6377 69.977 54.6377 67.8539C54.6377 64.3626 54.6141 60.8478 54.6377 57.3566C54.6613 53.7238 55.7464 50.5628 58.7658 48.2746C59.0017 48.0859 59.2376 47.6849 59.214 47.449C59.0725 46.4818 58.813 45.5382 58.5064 44.2644C57.0202 45.7977 55.6992 47.1423 54.4254 48.5341C53.7885 49.2418 53.2223 50.0438 52.7269 50.8694C52.1136 51.9074 51.0757 52.4971 49.8962 52.3556C48.5752 52.1905 47.7967 51.412 47.4429 50.1382C46.9711 48.3925 46.5229 46.6469 46.0511 44.8777C45.8388 45.208 45.8388 45.4674 45.8388 45.7505C45.7208 53.771 45.6265 61.7914 45.4849 69.7882C45.4614 70.5431 45.2255 71.298 45.0839 72.0528C44.848 72.0528 44.6121 72.0528 44.3762 72.0528C44.2111 71.6518 43.8809 71.2272 43.8809 70.8262C43.8809 67.8775 43.9988 64.9288 44.0224 61.9801C44.046 58.6068 44.0224 55.2335 44.0224 51.7894C40.0358 51.7894 35.9784 51.7894 31.8502 51.7894C31.8502 52.2848 31.8502 52.7094 31.8502 53.134C31.9446 58.9135 32.0625 64.6929 32.1333 70.4723C32.1333 70.9913 31.8266 71.5339 31.6615 72.0528C31.4256 72.0528 31.1897 72.0528 30.9538 72.0528C30.8359 71.581 30.6 71.1092 30.5764 70.6139C30.5056 69.1985 30.482 67.7831 30.482 66.3678C30.482 62.1452 30.482 57.8991 30.482 53.5115C28.1466 54.1484 26.7549 53.4407 26 51.5535C26 45.6562 26 39.7588 26 33.8614C26.5661 31.9506 27.5097 30.3466 29.4205 29.4973C31.3312 28.6481 31.7087 28.7425 33.0061 30.5353C32.5815 30.5825 32.1805 30.606 31.6615 30.6532C33.7845 35.2296 35.8368 39.7116 38.0307 44.4295C40.2245 39.688 42.2768 35.206 44.3762 30.6532C43.8809 30.606 43.4798 30.5825 43.0316 30.5353C44.3762 28.7661 44.7773 28.6481 46.6644 29.4973C48.2921 30.2522 49.3772 31.4789 49.849 33.2009C50.1321 34.286 50.3208 35.4183 50.5567 36.527C50.9813 38.6029 51.3823 40.6788 51.8777 43.1557C53.2931 41.6695 54.4725 40.4901 55.5813 39.2162C55.8407 38.9096 55.9115 38.367 55.9115 37.9188C55.9351 34.7342 55.9351 31.5496 55.9115 28.365C55.9115 26.3363 56.572 24.5199 57.7279 22.8923C59.332 20.6513 61.6202 19.5661 64.215 19C64.9935 19 65.7955 19 66.574 19C66.7155 19.0472 66.857 19.1415 66.9986 19.1651C71.9052 20.1795 74.8539 23.8123 74.8775 28.8604C74.8775 31.3373 74.8775 33.8142 74.8775 36.2911C74.8775 36.5742 74.8303 36.8573 74.7831 37.2347C73.6272 35.3239 73.1554 33.4604 73.297 31.3845C73.3913 30.0163 73.3206 28.6245 73.1554 27.2799C72.6837 23.5056 69.2396 20.6513 65.3237 20.6513C61.5022 20.6749 57.9638 23.5528 57.6571 27.2799C57.3976 30.4881 57.5392 33.7199 57.5156 36.928C57.5156 36.9752 57.6335 36.9988 57.6807 37.046C61.5258 33.7906 62.0684 33.6727 65.4417 35.4891C68.9329 33.3424 71.6693 34.404 73.2262 38.2255C75.0426 42.7075 77.1185 47.1187 79.0764 51.5535ZM74.3349 65.4242C74.3349 61.8857 74.5236 58.4653 74.2877 55.092C74.099 52.4499 72.5421 50.4212 70.2303 49.1002C69.5227 48.6992 68.7206 48.5105 68.0129 49.2654C67.2817 50.0674 67.0458 50.8458 68.1545 51.5535C68.2488 51.6243 68.3904 51.6951 68.414 51.7894C68.4611 52.1433 68.6263 52.6151 68.4611 52.8038C68.296 53.0161 67.7299 53.1104 67.4704 52.9925C67.0222 52.7802 66.574 52.4028 66.3617 52.0017C65.7483 50.8223 65.0878 50.5628 64.0027 51.5299C63.5545 51.931 62.7996 52.3792 62.2807 51.5771C61.7617 50.7515 62.5873 50.5392 63.0827 50.1853C63.1299 50.1382 63.1535 50.0674 63.2007 49.9966C62.4458 48.6048 61.6438 48.3925 60.2992 49.2889C58.1053 50.7279 56.69 52.733 56.4777 55.3514C56.2654 58.2766 56.3125 61.2252 56.2418 64.1739C56.2418 64.5985 56.2418 64.9996 56.2418 65.4478C62.3986 65.4242 68.3904 65.4242 74.3349 65.4242ZM44.2347 35.3711C44.1639 35.3475 44.1168 35.3239 44.046 35.3004C42.3711 38.9096 40.7199 42.5187 38.9978 46.1279C38.8091 46.529 38.3373 47.0715 38.0071 47.0479C37.6768 47.0479 37.2286 46.5054 37.0163 46.1044C35.7897 43.5567 34.6338 40.9854 33.4543 38.4142C32.322 35.9845 31.1897 33.5311 30.0574 31.0778C28.3825 31.9035 27.6513 33.1065 27.6513 34.9937C27.6513 39.6644 27.6513 44.3587 27.6513 49.0295C27.6513 49.6664 27.5097 50.3269 27.6984 50.893C27.8636 51.3884 28.4061 52.0961 28.8072 52.1197C29.2318 52.1433 29.7743 51.5299 30.1282 51.0817C30.3169 50.8694 30.1989 50.3977 30.1989 50.0438C30.1989 45.7977 30.1989 41.5516 30.1989 37.3055C30.1989 36.9988 30.1282 36.645 30.2461 36.3619C30.3641 36.0788 30.7179 35.7014 30.9066 35.725C31.2133 35.7721 31.5435 36.0552 31.7087 36.3619C31.8502 36.5978 31.7558 36.9752 31.7558 37.2819C31.7558 41.127 31.7558 44.9956 31.7558 48.8407C31.7558 49.2418 31.803 49.6664 31.8266 50.0202C36.0491 50.0202 40.1065 50.0202 44.2111 50.0202C44.2347 45.09 44.2347 40.2306 44.2347 35.3711ZM71.6457 39.5229C71.6693 37.7537 70.5606 36.3619 69.0745 36.0316C67.4704 35.6778 66.1965 36.6685 66.173 38.2726C66.173 38.886 66.2909 39.688 65.3709 39.688C64.4745 39.6644 64.6396 38.8624 64.616 38.249C64.616 38.1783 64.616 38.0839 64.616 38.0132C64.7576 37.1168 64.2386 36.6214 63.5073 36.2911C62.4458 35.7957 61.4315 35.9137 60.5115 36.5978C59.4499 37.3762 58.9546 38.4614 59.214 39.7824C59.6622 42.047 60.1812 44.3116 60.7002 46.5526C60.771 46.812 61.1012 47.2131 61.3135 47.2131C61.8089 47.1895 62.493 47.1187 62.7289 46.812C64.4273 44.571 66.2673 44.571 68.0365 46.8356C68.2724 47.1423 68.9093 47.1895 69.3575 47.2367C69.5698 47.2602 69.9709 46.9772 70.018 46.7649C70.6078 44.2644 71.1503 41.7875 71.6457 39.5229ZM44.4706 34.3804C45.7444 34.1916 45.886 34.8757 45.8624 35.725C45.8388 36.3855 45.768 37.0932 45.9331 37.7301C46.9239 41.7167 47.9618 45.7033 49.0234 49.69C49.2121 50.4212 49.6603 50.9402 50.4623 50.7515C51.2644 50.5628 51.5474 49.973 51.3823 49.1238C50.368 44.0757 49.4008 39.0275 48.3865 34.0029C48.127 32.6583 47.3721 31.6676 46.0275 31.0307C45.5085 32.0922 45.0367 33.1065 44.4706 34.3804ZM56.2418 68.6795C62.3986 68.6795 68.4611 68.6795 74.5001 68.6795C74.5001 68.137 74.5001 67.6652 74.5001 67.1934C68.3904 67.1934 62.3279 67.1934 56.2418 67.1934C56.2418 67.7359 56.2418 68.1606 56.2418 68.6795ZM73.0139 41.9526C72.9431 41.9526 72.8488 41.9762 72.778 41.9762C72.6365 42.5895 72.5657 43.2028 72.3534 43.7926C71.858 45.1608 71.9996 46.4582 72.7072 47.732C73.6036 49.3361 74.4765 50.9402 75.2785 52.5915C75.5852 53.2048 75.8918 53.7474 76.5287 53.2992C76.9298 53.0161 77.4251 52.1905 77.2836 51.8602C75.939 48.5341 74.4765 45.2551 73.0139 41.9526ZM53.0336 47.8972C54.1187 46.7177 55.0623 45.4438 56.2182 44.5003C57.7515 43.2264 58.4592 41.8818 57.5628 39.9947C57.5392 39.9475 57.4684 39.9003 57.2325 39.7352C56.171 40.8439 55.2038 42.0941 54.0008 43.0849C52.4203 44.3351 51.8305 45.7269 53.0336 47.8972ZM66.8099 48.3689C66.8099 48.1802 66.8335 47.9915 66.8335 47.8028C66.3617 47.4725 65.9371 46.93 65.4181 46.8356C64.6632 46.6941 64.0735 47.2838 64.215 48.0151C64.3094 48.4869 64.8991 49.1474 65.3237 49.171C65.7719 49.2418 66.3145 48.6756 66.8099 48.3689Z" fill="white"/>
<path d="M38.9742 19C39.8706 19.4482 40.885 19.7549 41.6634 20.3446C43.8101 21.9959 44.3998 24.921 43.2203 27.3507C42.088 29.7096 39.3988 31.0307 36.8512 30.4645C34.2327 29.8984 32.3692 27.7045 32.2748 25.0625C32.1569 22.3261 33.8317 20.0143 36.4502 19.2359C36.6625 19.1651 36.8748 19.0708 37.0871 19C37.724 19 38.3373 19 38.9742 19ZM37.9835 28.9548C40.2717 28.9784 42.2296 27.044 42.206 24.7794C42.1824 22.5384 40.2952 20.6749 38.0542 20.6513C35.7661 20.6277 33.8081 22.562 33.8317 24.8266C33.8553 27.0676 35.7425 28.9312 37.9835 28.9548Z" fill="white"/>
<path d="M35.6717 72.0764C35.5302 71.4631 35.2235 70.8498 35.2943 70.2601C35.8368 66.5093 36.5209 62.7586 37.0635 59.0079C37.205 58.0643 36.9455 57.0735 36.8748 56.1299C36.8276 55.5166 36.7096 54.8325 37.5117 54.7146C38.3137 54.5966 38.4317 55.2807 38.526 55.8704C39.3045 60.7535 40.0829 65.6129 40.8142 70.496C40.885 70.9913 40.5547 71.5575 40.4132 72.0764C40.1773 72.0764 39.9414 72.0764 39.7055 72.0764C39.5404 71.6047 39.3045 71.1565 39.2337 70.6611C38.8563 68.538 38.526 66.3914 38.1958 64.2683C37.8419 64.976 37.7476 65.6837 37.606 66.3914C37.2286 68.3021 36.8276 70.1893 36.4266 72.1C36.1435 72.0765 35.9076 72.0764 35.6717 72.0764Z" fill="white"/>
<path d="M34.5866 31.526C35.4358 31.7855 36.285 32.0686 37.2522 32.3752C36.4973 33.2952 35.5538 32.9414 34.7281 32.7998C34.4922 32.7527 34.3743 32.0922 34.2091 31.7147C34.3507 31.6439 34.4686 31.5732 34.5866 31.526Z" fill="white"/>
<path d="M38.8563 32.3281C39.7763 32.045 40.5783 31.7855 41.7342 31.4081C41.6163 31.9506 41.6399 32.446 41.4275 32.7055C41.0029 33.2009 39.4696 32.9414 38.8563 32.3281Z" fill="white"/>
<path d="M39.1394 34.3332C38.5968 34.687 38.2666 35.0881 38.0307 35.0173C37.724 34.9229 37.3466 34.5455 37.2994 34.2388C37.2758 34.0265 37.7476 33.5547 38.0071 33.5547C38.3137 33.5547 38.6204 33.9322 39.1394 34.3332Z" fill="white"/>
<path d="M39.1394 37.565C38.6204 37.966 38.2901 38.367 38.0778 38.3198C37.7712 38.2491 37.3937 37.8952 37.2994 37.5886C37.2522 37.3998 37.724 36.8809 37.9599 36.8809C38.2901 36.8573 38.5968 37.2347 39.1394 37.565Z" fill="white"/>
<path d="M37.9127 39.806C38.3373 40.3013 38.7619 40.5844 38.7383 40.8203C38.6912 41.127 38.3137 41.4101 38.0778 41.6931C37.8183 41.4808 37.3466 41.2685 37.323 41.0326C37.2758 40.726 37.606 40.3721 37.9127 39.806Z" fill="white"/>
<path d="M65.3945 24.8266C66.3853 24.8266 67.3524 24.8738 68.3432 24.803C69.1688 24.7558 69.6406 25.1097 70.0416 25.7938C71.3391 28.0348 70.8673 30.9835 68.8857 32.6347C66.857 34.3332 63.8376 34.3096 61.8561 32.564C59.8981 30.8655 59.4735 27.9404 60.8417 25.6994C61.2427 25.0625 61.7145 24.7558 62.4694 24.803C63.413 24.8502 64.4037 24.8266 65.3945 24.8266ZM65.4417 26.4071C64.616 26.4071 63.7904 26.3363 62.9884 26.4307C62.6109 26.4779 62.1156 26.7845 61.9504 27.1148C61.2427 28.5301 61.7145 30.2994 62.9648 31.3609C64.1914 32.3988 65.9606 32.5404 67.3288 31.7147C68.697 30.8891 69.4047 29.1671 69.0273 27.6573C68.815 26.8081 68.4611 26.242 67.4232 26.3835C66.7863 26.4779 66.1258 26.4071 65.4417 26.4071Z" fill="white"/>
<path d="M64.2386 42.3772C64.7576 41.9526 65.0642 41.6931 65.3709 41.4337C65.6304 41.7875 66.0786 42.1413 66.1022 42.5188C66.1258 42.8018 65.6068 43.1321 65.3473 43.4388C65.0407 43.1321 64.7576 42.849 64.2386 42.3772Z" fill="white"/>
<path d="M19.1081 84.62V95H17.7431V87.26L14.2931 95H13.3331L9.86814 87.245V95H8.50314V84.62H9.97314L13.8131 93.2L17.6531 84.62H19.1081ZM20.9131 90.86C20.9131 90.02 21.0831 89.285 21.4231 88.655C21.7631 88.015 22.2281 87.52 22.8181 87.17C23.4181 86.82 24.0831 86.645 24.8131 86.645C25.5331 86.645 26.1581 86.8 26.6881 87.11C27.2181 87.42 27.6131 87.81 27.8731 88.28V86.78H29.2531V95H27.8731V93.47C27.6031 93.95 27.1981 94.35 26.6581 94.67C26.1281 94.98 25.5081 95.135 24.7981 95.135C24.0681 95.135 23.4081 94.955 22.8181 94.595C22.2281 94.235 21.7631 93.73 21.4231 93.08C21.0831 92.43 20.9131 91.69 20.9131 90.86ZM27.8731 90.875C27.8731 90.255 27.7481 89.715 27.4981 89.255C27.2481 88.795 26.9081 88.445 26.4781 88.205C26.0581 87.955 25.5931 87.83 25.0831 87.83C24.5731 87.83 24.1081 87.95 23.6881 88.19C23.2681 88.43 22.9331 88.78 22.6831 89.24C22.4331 89.7 22.3081 90.24 22.3081 90.86C22.3081 91.49 22.4331 92.04 22.6831 92.51C22.9331 92.97 23.2681 93.325 23.6881 93.575C24.1081 93.815 24.5731 93.935 25.0831 93.935C25.5931 93.935 26.0581 93.815 26.4781 93.575C26.9081 93.325 27.2481 92.97 27.4981 92.51C27.7481 92.04 27.8731 91.495 27.8731 90.875ZM33.2248 87.905V92.75C33.2248 93.15 33.3098 93.435 33.4798 93.605C33.6498 93.765 33.9448 93.845 34.3648 93.845H35.3698V95H34.1398C33.3798 95 32.8098 94.825 32.4298 94.475C32.0498 94.125 31.8598 93.55 31.8598 92.75V87.905H30.7948V86.78H31.8598V84.71H33.2248V86.78H35.3698V87.905H33.2248ZM36.5137 90.875C36.5137 90.025 36.6837 89.285 37.0237 88.655C37.3637 88.015 37.8337 87.52 38.4337 87.17C39.0437 86.82 39.7387 86.645 40.5187 86.645C41.5287 86.645 42.3587 86.89 43.0087 87.38C43.6687 87.87 44.1037 88.55 44.3137 89.42H42.8437C42.7037 88.92 42.4287 88.525 42.0187 88.235C41.6187 87.945 41.1187 87.8 40.5187 87.8C39.7387 87.8 39.1087 88.07 38.6287 88.61C38.1487 89.14 37.9087 89.895 37.9087 90.875C37.9087 91.865 38.1487 92.63 38.6287 93.17C39.1087 93.71 39.7387 93.98 40.5187 93.98C41.1187 93.98 41.6187 93.84 42.0187 93.56C42.4187 93.28 42.6937 92.88 42.8437 92.36H44.3137C44.0937 93.2 43.6537 93.875 42.9937 94.385C42.3337 94.885 41.5087 95.135 40.5187 95.135C39.7387 95.135 39.0437 94.96 38.4337 94.61C37.8337 94.26 37.3637 93.765 37.0237 93.125C36.6837 92.485 36.5137 91.735 36.5137 90.875ZM50.215 86.63C50.835 86.63 51.395 86.765 51.895 87.035C52.395 87.295 52.785 87.69 53.065 88.22C53.355 88.75 53.5 89.395 53.5 90.155V95H52.15V90.35C52.15 89.53 51.945 88.905 51.535 88.475C51.125 88.035 50.565 87.815 49.855 87.815C49.135 87.815 48.56 88.04 48.13 88.49C47.71 88.94 47.5 89.595 47.5 90.455V95H46.135V83.9H47.5V87.95C47.77 87.53 48.14 87.205 48.61 86.975C49.09 86.745 49.625 86.63 50.215 86.63ZM70.3337 84.62V95H68.9687V87.26L65.5187 95H64.5587L61.0937 87.245V95H59.7287V84.62H61.1987L65.0387 93.2L68.8787 84.62H70.3337ZM72.1387 90.86C72.1387 90.02 72.3087 89.285 72.6487 88.655C72.9887 88.015 73.4537 87.52 74.0437 87.17C74.6437 86.82 75.3087 86.645 76.0387 86.645C76.7587 86.645 77.3837 86.8 77.9137 87.11C78.4437 87.42 78.8387 87.81 79.0987 88.28V86.78H80.4787V95H79.0987V93.47C78.8287 93.95 78.4237 94.35 77.8837 94.67C77.3537 94.98 76.7337 95.135 76.0237 95.135C75.2937 95.135 74.6337 94.955 74.0437 94.595C73.4537 94.235 72.9887 93.73 72.6487 93.08C72.3087 92.43 72.1387 91.69 72.1387 90.86ZM79.0987 90.875C79.0987 90.255 78.9737 89.715 78.7237 89.255C78.4737 88.795 78.1337 88.445 77.7037 88.205C77.2837 87.955 76.8187 87.83 76.3087 87.83C75.7987 87.83 75.3337 87.95 74.9137 88.19C74.4937 88.43 74.1587 88.78 73.9087 89.24C73.6587 89.7 73.5337 90.24 73.5337 90.86C73.5337 91.49 73.6587 92.04 73.9087 92.51C74.1587 92.97 74.4937 93.325 74.9137 93.575C75.3337 93.815 75.7987 93.935 76.3087 93.935C76.8187 93.935 77.2837 93.815 77.7037 93.575C78.1337 93.325 78.4737 92.97 78.7237 92.51C78.9737 92.04 79.0987 91.495 79.0987 90.875ZM87.3754 95L84.1504 91.37V95H82.7854V83.9H84.1504V90.425L87.3154 86.78H89.2204L85.3504 90.875L89.2354 95H87.3754ZM98.0051 90.575C98.0051 90.835 97.9901 91.11 97.9601 91.4H91.3901C91.4401 92.21 91.7151 92.845 92.2151 93.305C92.7251 93.755 93.3401 93.98 94.0601 93.98C94.6501 93.98 95.1401 93.845 95.5301 93.575C95.9301 93.295 96.2101 92.925 96.3701 92.465H97.8401C97.6201 93.255 97.1801 93.9 96.5201 94.4C95.8601 94.89 95.0401 95.135 94.0601 95.135C93.2801 95.135 92.5801 94.96 91.9601 94.61C91.3501 94.26 90.8701 93.765 90.5201 93.125C90.1701 92.475 89.9951 91.725 89.9951 90.875C89.9951 90.025 90.1651 89.28 90.5051 88.64C90.8451 88 91.3201 87.51 91.9301 87.17C92.5501 86.82 93.2601 86.645 94.0601 86.645C94.8401 86.645 95.5301 86.815 96.1301 87.155C96.7301 87.495 97.1901 87.965 97.5101 88.565C97.8401 89.155 98.0051 89.825 98.0051 90.575ZM96.5951 90.29C96.5951 89.77 96.4801 89.325 96.2501 88.955C96.0201 88.575 95.7051 88.29 95.3051 88.1C94.9151 87.9 94.4801 87.8 94.0001 87.8C93.3101 87.8 92.7201 88.02 92.2301 88.46C91.7501 88.9 91.4751 89.51 91.4051 90.29H96.5951Z" fill="white"/>
</svg>
