<svg width="60" height="60" viewBox="0 0 60 60" fill="none" xmlns="http://www.w3.org/2000/svg">
<circle cx="30" cy="30" r="30" fill="#ED225C"/>
<path d="M11.6 36.4591C13.2583 34.2989 14.8294 32.2041 16.4441 30.0875C14.8512 27.9928 13.2583 25.9199 11.6 23.7378C11.9709 23.6942 12.2328 23.6287 12.4946 23.6287C17.4696 23.6287 22.4447 23.6287 27.4197 23.6287C27.7906 23.6287 28.2925 23.6724 28.5107 23.9124C30.4309 25.9417 32.3074 27.9928 34.2276 30.0875C32.3074 32.1823 30.4527 34.2116 28.5543 36.219C28.358 36.4154 27.987 36.5463 27.7034 36.5463C22.4665 36.5682 17.2514 36.5682 12.0146 36.5463C11.9273 36.5682 11.84 36.5245 11.6 36.4591Z" fill="white"/>
<path d="M37.5661 30.0875C33.944 26.1599 30.4091 22.3195 26.7651 18.3919C28.6853 18.3919 30.4963 18.4573 32.2856 18.37C33.4857 18.3264 34.4022 18.6755 35.3405 19.4174C39.6391 22.8214 43.9813 26.1599 48.3235 29.5202C48.5199 29.6729 48.7163 29.8475 49 30.0875C47.1889 31.5059 45.4433 32.8805 43.6758 34.2334C40.7301 36.5245 37.7843 38.8593 34.7949 41.1068C34.2931 41.4777 33.573 41.7178 32.9402 41.7396C30.9546 41.8269 28.9689 41.7614 26.7651 41.7614C30.4527 37.8119 33.9876 33.9934 37.5661 30.0875Z" fill="white"/>
</svg>
