<svg width="106" height="106" viewBox="0 0 106 106" fill="none" xmlns="http://www.w3.org/2000/svg">
<rect width="106" height="106" rx="10" fill="#ED225C"/>
<path d="M31.8771 64.316C32.3906 61.606 32.7615 59.0956 33.332 56.6139C33.5887 55.5299 33.2749 54.9879 32.5047 54.3317C27.8264 50.2239 25.0879 45.0607 25.0023 38.7849C24.8882 30.0558 29.053 23.6374 36.4414 19.2728C45.741 13.8243 58.4637 15.1365 66.1944 22.211C77.2911 32.395 75.5796 49.1114 62.6286 56.8421C57.4653 59.9229 51.9027 61.0354 45.9406 60.3223C44.8566 60.2082 43.6585 60.3508 42.6316 60.6646C39.5222 61.663 36.4414 62.8041 33.3605 63.8596C32.9326 64.0307 32.5047 64.1448 31.8771 64.316ZM38.0103 56.9847C39.9786 56.3001 41.3479 55.7581 42.7457 55.3587C43.5444 55.1305 44.4287 55.0164 45.2275 55.159C50.2767 56.1004 55.0691 55.3872 59.5477 52.8769C70.3307 46.8578 71.757 33.0796 62.4004 25.463C55.2973 19.6722 45.0278 19.2728 37.4683 24.5217C28.0546 31.0542 27.3414 43.5202 36.1276 50.7945C38.1244 52.4775 39.8931 53.7612 38.0103 56.9847Z" fill="white"/>
<path d="M74.6382 71.7044C71.0439 70.4492 67.6778 69.2226 64.2546 68.1386C63.1706 67.7963 61.944 67.8248 60.8029 67.7963C59.8045 67.7677 58.8061 67.9389 57.8076 67.9104C56.3528 67.8818 55.4114 66.8549 55.3829 65.4571C55.3829 64.1164 56.2672 63.175 57.6365 63.0038C59.2054 62.8327 60.7459 62.6045 62.2863 62.4904C62.7998 62.4618 63.3132 62.5474 63.7982 62.69C65.1675 63.1179 66.4797 63.6029 68.0486 64.1164C67.8489 62.8897 67.6492 61.7772 67.4781 60.7788C68.99 59.4951 70.5589 58.3255 71.8997 56.9562C74.5812 54.1892 75.9219 50.7945 76.1216 46.9435C76.2357 44.9752 77.1485 44.0053 78.7175 44.0623C80.2864 44.1194 81.1993 45.2034 81.0852 47.1432C80.7999 52.9911 78.4607 57.8976 74.0962 61.7487C73.0978 62.633 72.9552 63.4032 73.2119 64.5443C73.7539 66.8834 74.1818 69.2226 74.6382 71.7044Z" fill="white"/>
<path d="M62.9138 37.6723C62.9424 39.0415 61.8013 40.2396 60.4321 40.2682C59.0628 40.3252 57.8647 39.2127 57.7791 37.8149C57.722 36.3886 58.8916 35.1334 60.3465 35.1334C61.7157 35.1334 62.8853 36.2745 62.9138 37.6723Z" fill="white"/>
<path d="M39.9501 37.758C39.9216 39.1558 38.7805 40.2683 37.3828 40.2683C35.9279 40.2683 34.8154 39.0702 34.8724 37.5868C34.9295 36.189 36.0991 35.105 37.4969 35.1621C38.8661 35.1906 39.9787 36.3887 39.9501 37.758Z" fill="white"/>
<path d="M51.4463 37.7293C51.4463 39.0986 50.3052 40.2397 48.9074 40.2682C47.5096 40.2967 46.3686 39.1557 46.34 37.7579C46.3115 36.303 47.4811 35.1049 48.9359 35.1334C50.3052 35.1905 51.4463 36.3315 51.4463 37.7293Z" fill="white"/>
<path d="M14.1714 95.105C13.2014 95.105 12.3164 94.88 11.5164 94.43C10.7164 93.97 10.0814 93.335 9.61137 92.525C9.15137 91.705 8.92137 90.785 8.92137 89.765C8.92137 88.745 9.15137 87.83 9.61137 87.02C10.0814 86.2 10.7164 85.565 11.5164 85.115C12.3164 84.655 13.2014 84.425 14.1714 84.425C15.1514 84.425 16.0414 84.655 16.8414 85.115C17.6414 85.565 18.2714 86.195 18.7314 87.005C19.1914 87.815 19.4214 88.735 19.4214 89.765C19.4214 90.795 19.1914 91.715 18.7314 92.525C18.2714 93.335 17.6414 93.97 16.8414 94.43C16.0414 94.88 15.1514 95.105 14.1714 95.105ZM14.1714 93.92C14.9014 93.92 15.5564 93.75 16.1364 93.41C16.7264 93.07 17.1864 92.585 17.5164 91.955C17.8564 91.325 18.0264 90.595 18.0264 89.765C18.0264 88.925 17.8564 88.195 17.5164 87.575C17.1864 86.945 16.7314 86.46 16.1514 86.12C15.5714 85.78 14.9114 85.61 14.1714 85.61C13.4314 85.61 12.7714 85.78 12.1914 86.12C11.6114 86.46 11.1514 86.945 10.8114 87.575C10.4814 88.195 10.3164 88.925 10.3164 89.765C10.3164 90.595 10.4814 91.325 10.8114 91.955C11.1514 92.585 11.6114 93.07 12.1914 93.41C12.7814 93.75 13.4414 93.92 14.1714 93.92ZM25.2284 86.63C26.2284 86.63 27.0384 86.935 27.6584 87.545C28.2784 88.145 28.5884 89.015 28.5884 90.155V95H27.2384V90.35C27.2384 89.53 27.0334 88.905 26.6234 88.475C26.2134 88.035 25.6534 87.815 24.9434 87.815C24.2234 87.815 23.6484 88.04 23.2184 88.49C22.7984 88.94 22.5884 89.595 22.5884 90.455V95H21.2234V86.78H22.5884V87.95C22.8584 87.53 23.2234 87.205 23.6834 86.975C24.1534 86.745 24.6684 86.63 25.2284 86.63ZM32.1831 83.9V95H30.8181V83.9H32.1831ZM35.2145 85.445C34.9545 85.445 34.7345 85.355 34.5545 85.175C34.3745 84.995 34.2845 84.775 34.2845 84.515C34.2845 84.255 34.3745 84.035 34.5545 83.855C34.7345 83.675 34.9545 83.585 35.2145 83.585C35.4645 83.585 35.6745 83.675 35.8445 83.855C36.0245 84.035 36.1145 84.255 36.1145 84.515C36.1145 84.775 36.0245 84.995 35.8445 85.175C35.6745 85.355 35.4645 85.445 35.2145 85.445ZM35.8745 86.78V95H34.5095V86.78H35.8745ZM42.2059 86.63C43.2059 86.63 44.0159 86.935 44.6359 87.545C45.2559 88.145 45.5659 89.015 45.5659 90.155V95H44.2159V90.35C44.2159 89.53 44.0109 88.905 43.6009 88.475C43.1909 88.035 42.6309 87.815 41.9209 87.815C41.2009 87.815 40.6259 88.04 40.1959 88.49C39.7759 88.94 39.5659 89.595 39.5659 90.455V95H38.2009V86.78H39.5659V87.95C39.8359 87.53 40.2009 87.205 40.6609 86.975C41.1309 86.745 41.6459 86.63 42.2059 86.63ZM55.2956 90.575C55.2956 90.835 55.2806 91.11 55.2506 91.4H48.6806C48.7306 92.21 49.0056 92.845 49.5056 93.305C50.0156 93.755 50.6306 93.98 51.3506 93.98C51.9406 93.98 52.4306 93.845 52.8206 93.575C53.2206 93.295 53.5006 92.925 53.6606 92.465H55.1306C54.9106 93.255 54.4706 93.9 53.8106 94.4C53.1506 94.89 52.3306 95.135 51.3506 95.135C50.5706 95.135 49.8706 94.96 49.2506 94.61C48.6406 94.26 48.1606 93.765 47.8106 93.125C47.4606 92.475 47.2856 91.725 47.2856 90.875C47.2856 90.025 47.4556 89.28 47.7956 88.64C48.1356 88 48.6106 87.51 49.2206 87.17C49.8406 86.82 50.5506 86.645 51.3506 86.645C52.1306 86.645 52.8206 86.815 53.4206 87.155C54.0206 87.495 54.4806 87.965 54.8006 88.565C55.1306 89.155 55.2956 89.825 55.2956 90.575ZM53.8856 90.29C53.8856 89.77 53.7706 89.325 53.5406 88.955C53.3106 88.575 52.9956 88.29 52.5956 88.1C52.2056 87.9 51.7706 87.8 51.2906 87.8C50.6006 87.8 50.0106 88.02 49.5206 88.46C49.0406 88.9 48.7656 89.51 48.6956 90.29H53.8856ZM60.5864 89.765C60.5864 88.745 60.8164 87.83 61.2764 87.02C61.7364 86.2 62.3614 85.56 63.1514 85.1C63.9514 84.64 64.8364 84.41 65.8064 84.41C66.9464 84.41 67.9414 84.685 68.7914 85.235C69.6414 85.785 70.2614 86.565 70.6514 87.575H69.0164C68.7264 86.945 68.3064 86.46 67.7564 86.12C67.2164 85.78 66.5664 85.61 65.8064 85.61C65.0764 85.61 64.4214 85.78 63.8414 86.12C63.2614 86.46 62.8064 86.945 62.4764 87.575C62.1464 88.195 61.9814 88.925 61.9814 89.765C61.9814 90.595 62.1464 91.325 62.4764 91.955C62.8064 92.575 63.2614 93.055 63.8414 93.395C64.4214 93.735 65.0764 93.905 65.8064 93.905C66.5664 93.905 67.2164 93.74 67.7564 93.41C68.3064 93.07 68.7264 92.585 69.0164 91.955H70.6514C70.2614 92.955 69.6414 93.73 68.7914 94.28C67.9414 94.82 66.9464 95.09 65.8064 95.09C64.8364 95.09 63.9514 94.865 63.1514 94.415C62.3614 93.955 61.7364 93.32 61.2764 92.51C60.8164 91.7 60.5864 90.785 60.5864 89.765ZM76.7633 86.63C77.3833 86.63 77.9433 86.765 78.4433 87.035C78.9433 87.295 79.3333 87.69 79.6133 88.22C79.9033 88.75 80.0483 89.395 80.0483 90.155V95H78.6983V90.35C78.6983 89.53 78.4933 88.905 78.0833 88.475C77.6733 88.035 77.1133 87.815 76.4033 87.815C75.6833 87.815 75.1083 88.04 74.6783 88.49C74.2583 88.94 74.0483 89.595 74.0483 90.455V95H72.6833V83.9H74.0483V87.95C74.3183 87.53 74.6883 87.205 75.1583 86.975C75.6383 86.745 76.1733 86.63 76.7633 86.63ZM81.768 90.86C81.768 90.02 81.938 89.285 82.278 88.655C82.618 88.015 83.083 87.52 83.673 87.17C84.273 86.82 84.938 86.645 85.668 86.645C86.388 86.645 87.013 86.8 87.543 87.11C88.073 87.42 88.468 87.81 88.728 88.28V86.78H90.108V95H88.728V93.47C88.458 93.95 88.053 94.35 87.513 94.67C86.983 94.98 86.363 95.135 85.653 95.135C84.923 95.135 84.263 94.955 83.673 94.595C83.083 94.235 82.618 93.73 82.278 93.08C81.938 92.43 81.768 91.69 81.768 90.86ZM88.728 90.875C88.728 90.255 88.603 89.715 88.353 89.255C88.103 88.795 87.763 88.445 87.333 88.205C86.913 87.955 86.448 87.83 85.938 87.83C85.428 87.83 84.963 87.95 84.543 88.19C84.123 88.43 83.788 88.78 83.538 89.24C83.288 89.7 83.163 90.24 83.163 90.86C83.163 91.49 83.288 92.04 83.538 92.51C83.788 92.97 84.123 93.325 84.543 93.575C84.963 93.815 85.428 93.935 85.938 93.935C86.448 93.935 86.913 93.815 87.333 93.575C87.763 93.325 88.103 92.97 88.353 92.51C88.603 92.04 88.728 91.495 88.728 90.875ZM94.0798 87.905V92.75C94.0798 93.15 94.1648 93.435 94.3348 93.605C94.5048 93.765 94.7998 93.845 95.2198 93.845H96.2248V95H94.9948C94.2348 95 93.6648 94.825 93.2848 94.475C92.9048 94.125 92.7148 93.55 92.7148 92.75V87.905H91.6498V86.78H92.7148V84.71H94.0798V86.78H96.2248V87.905H94.0798Z" fill="white"/>
</svg>
