<svg width="106" height="106" viewBox="0 0 106 106" fill="none" xmlns="http://www.w3.org/2000/svg">
<path d="M0 10C0 4.47715 4.47715 0 10 0H96C101.523 0 106 4.47715 106 10V53V96C106 101.523 101.523 106 96 106H10C4.47715 106 0 101.523 0 96V10Z" fill="#ED225C"/>
<path d="M74.5133 73.474C59.9314 73.474 45.3254 73.474 30.7436 73.474C30.5018 72.9178 30.0181 72.3858 30.0181 71.8296C29.994 54.7812 29.994 37.757 30.0181 20.7086C30.0181 20.1524 30.4776 19.6204 30.7436 19.0642C45.3254 19.0642 59.9314 19.0642 74.5133 19.0642C74.7551 19.6204 75.2387 20.1524 75.2387 20.7086C75.2871 37.757 75.2871 54.8054 75.2387 71.8296C75.2387 72.3858 74.7551 72.9178 74.5133 73.474ZM32.2429 71.1525C45.8816 71.1525 59.4236 71.1525 72.9414 71.1525C72.9414 54.491 72.9414 37.9263 72.9414 21.3373C59.3269 21.3373 45.8091 21.3373 32.2429 21.3373C32.2429 37.9746 32.2429 54.5152 32.2429 71.1525Z" fill="white"/>
<path d="M53.0879 53.693C49.4606 53.5721 46.0751 52.7257 43.3909 50.0898C41.3838 48.1311 40.6825 45.7854 41.4805 43.0286C42.2785 40.2961 43.6811 37.9262 45.7607 36.0158C46.462 35.3387 46.6313 34.8067 46.3653 33.8636C45.3013 30.067 46.6796 26.5848 49.8717 25.013C52.435 23.7555 54.9741 23.9006 57.2714 25.5933C59.5929 27.2619 60.7053 29.6559 60.0765 32.4369C59.6413 34.3956 59.9073 35.7015 61.4307 37.0798C63.1477 38.6759 64.1391 40.8523 64.7679 43.1496C65.4933 45.8096 64.8404 48.0827 62.9059 49.9931C60.1733 52.7015 56.7636 53.5721 53.0879 53.693ZM58.5289 37.2491C57.1021 39.3771 55.6512 41.2392 53.0395 41.215C50.4279 41.215 49.0011 39.2079 47.5986 37.2733C45.664 39.1111 44.3098 41.1908 43.5843 43.6332C42.9798 45.6887 43.6085 47.3572 45.1562 48.7356C49.122 52.2904 56.9812 52.2904 60.9229 48.7598C62.0837 47.72 62.9059 46.4867 62.7124 44.8665C62.398 41.8195 60.7536 39.4497 58.5289 37.2491ZM53.0395 26.4881C50.8632 26.5123 48.9044 27.9148 48.4208 30.0428C47.7437 33.0656 48.9769 35.5805 50.8632 37.8053C52.2899 39.4981 53.9101 39.4255 55.3852 37.7328C56.7878 36.1609 57.5616 34.2747 57.9002 32.2192C58.408 29.1965 56.1107 26.4639 53.0395 26.4881Z" fill="white"/>
<path d="M53.7166 57.6347C57.5858 57.6347 61.4549 57.6347 65.2999 57.6347C65.711 57.6347 66.1704 57.5621 66.4848 57.7314C66.8233 57.9007 67.2586 58.3359 67.2344 58.6261C67.2344 59.013 66.8959 59.4967 66.5332 59.7143C66.243 59.9078 65.7593 59.8352 65.3482 59.8352C57.6099 59.8352 49.8959 59.8352 42.1576 59.8352C41.9883 59.8352 41.8432 59.8352 41.6739 59.8352C40.8759 59.8352 40.1505 59.6418 40.1505 58.6987C40.1505 57.7314 40.9243 57.6105 41.6981 57.6105C45.7365 57.6347 49.7266 57.6347 53.7166 57.6347Z" fill="white"/>
<path d="M53.7167 64.4541C57.7067 64.4541 61.6968 64.4541 65.6868 64.4541C66.4848 64.4541 67.3312 64.4783 67.307 65.5665C67.2828 66.6305 66.4606 66.6789 65.6626 66.6789C57.7309 66.6789 49.7991 66.6789 41.8674 66.6789C41.021 66.6789 40.223 66.5338 40.223 65.5181C40.223 64.4541 41.0936 64.4541 41.8916 64.4541C45.8091 64.4541 49.7508 64.4541 53.7167 64.4541Z" fill="white"/>
<path d="M13.2724 95.105C12.3024 95.105 11.4174 94.88 10.6174 94.43C9.81744 93.97 9.18244 93.335 8.71244 92.525C8.25244 91.705 8.02244 90.785 8.02244 89.765C8.02244 88.745 8.25244 87.83 8.71244 87.02C9.18244 86.2 9.81744 85.565 10.6174 85.115C11.4174 84.655 12.3024 84.425 13.2724 84.425C14.2524 84.425 15.1424 84.655 15.9424 85.115C16.7424 85.565 17.3724 86.195 17.8324 87.005C18.2924 87.815 18.5224 88.735 18.5224 89.765C18.5224 90.795 18.2924 91.715 17.8324 92.525C17.3724 93.335 16.7424 93.97 15.9424 94.43C15.1424 94.88 14.2524 95.105 13.2724 95.105ZM13.2724 93.92C14.0024 93.92 14.6574 93.75 15.2374 93.41C15.8274 93.07 16.2874 92.585 16.6174 91.955C16.9574 91.325 17.1274 90.595 17.1274 89.765C17.1274 88.925 16.9574 88.195 16.6174 87.575C16.2874 86.945 15.8324 86.46 15.2524 86.12C14.6724 85.78 14.0124 85.61 13.2724 85.61C12.5324 85.61 11.8724 85.78 11.2924 86.12C10.7124 86.46 10.2524 86.945 9.91244 87.575C9.58244 88.195 9.41744 88.925 9.41744 89.765C9.41744 90.595 9.58244 91.325 9.91244 91.955C10.2524 92.585 10.7124 93.07 11.2924 93.41C11.8824 93.75 12.5424 93.92 13.2724 93.92ZM21.9894 87.905V92.75C21.9894 93.15 22.0744 93.435 22.2444 93.605C22.4144 93.765 22.7094 93.845 23.1294 93.845H24.1344V95H22.9044C22.1444 95 21.5744 94.825 21.1944 94.475C20.8144 94.125 20.6244 93.55 20.6244 92.75V87.905H19.5594V86.78H20.6244V84.71H21.9894V86.78H24.1344V87.905H21.9894ZM29.8683 86.63C30.4883 86.63 31.0483 86.765 31.5483 87.035C32.0483 87.295 32.4383 87.69 32.7183 88.22C33.0083 88.75 33.1533 89.395 33.1533 90.155V95H31.8033V90.35C31.8033 89.53 31.5983 88.905 31.1883 88.475C30.7783 88.035 30.2183 87.815 29.5083 87.815C28.7883 87.815 28.2133 88.04 27.7833 88.49C27.3633 88.94 27.1533 89.595 27.1533 90.455V95H25.7883V83.9H27.1533V87.95C27.4233 87.53 27.7933 87.205 28.2633 86.975C28.7433 86.745 29.2783 86.63 29.8683 86.63ZM42.883 90.575C42.883 90.835 42.868 91.11 42.838 91.4H36.268C36.318 92.21 36.593 92.845 37.093 93.305C37.603 93.755 38.218 93.98 38.938 93.98C39.528 93.98 40.018 93.845 40.408 93.575C40.808 93.295 41.088 92.925 41.248 92.465H42.718C42.498 93.255 42.058 93.9 41.398 94.4C40.738 94.89 39.918 95.135 38.938 95.135C38.158 95.135 37.458 94.96 36.838 94.61C36.228 94.26 35.748 93.765 35.398 93.125C35.048 92.475 34.873 91.725 34.873 90.875C34.873 90.025 35.043 89.28 35.383 88.64C35.723 88 36.198 87.51 36.808 87.17C37.428 86.82 38.138 86.645 38.938 86.645C39.718 86.645 40.408 86.815 41.008 87.155C41.608 87.495 42.068 87.965 42.388 88.565C42.718 89.155 42.883 89.825 42.883 90.575ZM41.473 90.29C41.473 89.77 41.358 89.325 41.128 88.955C40.898 88.575 40.583 88.29 40.183 88.1C39.793 87.9 39.358 87.8 38.878 87.8C38.188 87.8 37.598 88.02 37.108 88.46C36.628 88.9 36.353 89.51 36.283 90.29H41.473ZM46.0498 88.115C46.2898 87.645 46.6298 87.28 47.0698 87.02C47.5198 86.76 48.0648 86.63 48.7048 86.63V88.04H48.3448C46.8148 88.04 46.0498 88.87 46.0498 90.53V95H44.6848V86.78H46.0498V88.115ZM61.2695 87.605C61.2695 88.475 60.9695 89.2 60.3695 89.78C59.7795 90.35 58.8745 90.635 57.6545 90.635H55.6445V95H54.2795V84.545H57.6545C58.8345 84.545 59.7295 84.83 60.3395 85.4C60.9595 85.97 61.2695 86.705 61.2695 87.605ZM57.6545 89.51C58.4145 89.51 58.9745 89.345 59.3345 89.015C59.6945 88.685 59.8745 88.215 59.8745 87.605C59.8745 86.315 59.1345 85.67 57.6545 85.67H55.6445V89.51H57.6545ZM64.331 88.115C64.571 87.645 64.911 87.28 65.351 87.02C65.801 86.76 66.346 86.63 66.986 86.63V88.04H66.626C65.096 88.04 64.331 88.87 64.331 90.53V95H62.966V86.78H64.331V88.115ZM72.1467 95.135C71.3767 95.135 70.6767 94.96 70.0467 94.61C69.4267 94.26 68.9367 93.765 68.5767 93.125C68.2267 92.475 68.0517 91.725 68.0517 90.875C68.0517 90.035 68.2317 89.295 68.5917 88.655C68.9617 88.005 69.4617 87.51 70.0917 87.17C70.7217 86.82 71.4267 86.645 72.2067 86.645C72.9867 86.645 73.6917 86.82 74.3217 87.17C74.9517 87.51 75.4467 88 75.8067 88.64C76.1767 89.28 76.3617 90.025 76.3617 90.875C76.3617 91.725 76.1717 92.475 75.7917 93.125C75.4217 93.765 74.9167 94.26 74.2767 94.61C73.6367 94.96 72.9267 95.135 72.1467 95.135ZM72.1467 93.935C72.6367 93.935 73.0967 93.82 73.5267 93.59C73.9567 93.36 74.3017 93.015 74.5617 92.555C74.8317 92.095 74.9667 91.535 74.9667 90.875C74.9667 90.215 74.8367 89.655 74.5767 89.195C74.3167 88.735 73.9767 88.395 73.5567 88.175C73.1367 87.945 72.6817 87.83 72.1917 87.83C71.6917 87.83 71.2317 87.945 70.8117 88.175C70.4017 88.395 70.0717 88.735 69.8217 89.195C69.5717 89.655 69.4467 90.215 69.4467 90.875C69.4467 91.545 69.5667 92.11 69.8067 92.57C70.0567 93.03 70.3867 93.375 70.7967 93.605C71.2067 93.825 71.6567 93.935 72.1467 93.935ZM81.5015 87.905H79.7765V95H78.4115V87.905H77.3465V86.78H78.4115V86.195C78.4115 85.275 78.6465 84.605 79.1165 84.185C79.5965 83.755 80.3615 83.54 81.4115 83.54V84.68C80.8115 84.68 80.3865 84.8 80.1365 85.04C79.8965 85.27 79.7765 85.655 79.7765 86.195V86.78H81.5015V87.905ZM83.798 85.445C83.538 85.445 83.318 85.355 83.138 85.175C82.958 84.995 82.868 84.775 82.868 84.515C82.868 84.255 82.958 84.035 83.138 83.855C83.318 83.675 83.538 83.585 83.798 83.585C84.048 83.585 84.258 83.675 84.428 83.855C84.608 84.035 84.698 84.255 84.698 84.515C84.698 84.775 84.608 84.995 84.428 85.175C84.258 85.355 84.048 85.445 83.798 85.445ZM84.458 86.78V95H83.093V86.78H84.458ZM88.1494 83.9V95H86.7844V83.9H88.1494ZM97.9758 90.575C97.9758 90.835 97.9608 91.11 97.9308 91.4H91.3608C91.4108 92.21 91.6858 92.845 92.1858 93.305C92.6958 93.755 93.3108 93.98 94.0308 93.98C94.6208 93.98 95.1108 93.845 95.5008 93.575C95.9008 93.295 96.1808 92.925 96.3408 92.465H97.8108C97.5908 93.255 97.1508 93.9 96.4908 94.4C95.8308 94.89 95.0108 95.135 94.0308 95.135C93.2508 95.135 92.5508 94.96 91.9308 94.61C91.3208 94.26 90.8408 93.765 90.4908 93.125C90.1408 92.475 89.9658 91.725 89.9658 90.875C89.9658 90.025 90.1358 89.28 90.4758 88.64C90.8158 88 91.2908 87.51 91.9008 87.17C92.5208 86.82 93.2308 86.645 94.0308 86.645C94.8108 86.645 95.5008 86.815 96.1008 87.155C96.7008 87.495 97.1608 87.965 97.4808 88.565C97.8108 89.155 97.9758 89.825 97.9758 90.575ZM96.5658 90.29C96.5658 89.77 96.4508 89.325 96.2208 88.955C95.9908 88.575 95.6758 88.29 95.2758 88.1C94.8858 87.9 94.4508 87.8 93.9708 87.8C93.2808 87.8 92.6908 88.02 92.2008 88.46C91.7208 88.9 91.4458 89.51 91.3758 90.29H96.5658Z" fill="white"/>
</svg>
