<svg width="106" height="106" viewBox="0 0 106 106" fill="none" xmlns="http://www.w3.org/2000/svg">
<rect width="106" height="106" rx="10" fill="#ED225C"/>
<path d="M41.6748 39.4827C43.3027 45.0492 52.7553 54.5542 58.6631 56.6285C59.0045 55.9721 59.3195 55.2632 59.6609 54.5805C60.0547 53.7928 60.3698 52.9788 60.8424 52.2436C61.9715 50.4844 63.4682 49.9067 65.3587 50.6944C70.1112 52.7162 74.3386 55.5783 77.8833 59.333C79.4325 60.9872 79.59 62.4839 78.3297 64.1906C75.2051 68.4705 71.1352 71.4113 65.7788 72.2253C63.5994 72.5666 61.5251 71.8051 59.5559 70.9649C53.7005 68.4442 48.6854 64.6632 43.9854 60.4358C37.5787 54.6855 32.0384 48.1212 28.0736 40.3491C27.706 39.6402 27.4172 38.9313 27.1021 38.1961C24.6602 32.7608 26.5769 28.1396 29.9116 23.8597C30.9881 22.4418 32.301 21.1552 33.6926 20.0524C35.5306 18.582 37.1848 18.6608 38.8915 20.2362C42.6725 23.7809 45.5083 28.0083 47.5301 32.7871C48.3703 34.8089 47.7664 36.3055 45.8496 37.4609C45.1932 37.881 44.458 38.1698 43.7491 38.5111C43.0664 38.8525 42.3837 39.1413 41.6748 39.4827ZM64.9648 69.547C64.9911 69.442 65.0173 69.3632 65.0698 69.2582C65.2011 69.2582 65.3324 69.2845 65.4637 69.2582C69.7436 68.4442 73.0783 66.0811 75.6777 62.6939C75.8878 62.4314 75.6777 61.5911 75.3889 61.276C72.3168 58.0989 68.6933 55.7095 64.7022 53.819C63.9408 53.4514 63.5732 53.714 63.2844 54.3704C62.838 55.3682 62.3916 56.366 61.8927 57.3375C60.6061 59.8844 59.0832 60.5408 56.5888 59.1755C54.2519 57.9151 52.0201 56.4447 49.9195 54.8168C45.377 51.3246 41.8323 46.9659 39.2329 41.8983C37.815 39.1938 38.3664 37.6447 41.0183 36.3318C42.0424 35.8329 43.0927 35.4128 44.0642 34.8351C44.353 34.6776 44.6156 33.9949 44.5105 33.7324C42.6725 29.5837 40.2044 25.829 36.9222 22.7044C36.6597 22.4418 35.7932 22.4155 35.4781 22.6519C34.4803 23.4396 33.5613 24.3061 32.7474 25.2776C29.2027 29.3999 27.9686 33.7849 30.8043 38.9575C33.7189 44.2352 37.1848 49.0928 41.3072 53.4514C46.6111 59.0967 52.4664 64.0593 59.4771 67.499C61.2101 68.3655 63.1268 68.8643 64.9648 69.547Z" fill="white"/>
<path d="M56.8776 20.8926C67.9056 20.9977 77.0431 28.0871 79.485 38.4849C79.5637 38.8525 79.7213 39.2989 79.6163 39.6402C79.485 40.0341 79.1174 40.6117 78.8023 40.6117C78.3822 40.638 77.8833 40.2966 77.5419 39.9815C77.3319 39.7715 77.3319 39.3251 77.2531 38.9838C75.3626 30.5027 67.8531 23.991 59.1882 23.4133C57.1927 23.282 55.1709 23.4396 53.1754 23.5709C52.3351 23.6234 51.7312 23.4396 51.5737 22.6256C51.4161 21.7591 52.0463 21.3653 52.834 21.2865C54.1731 21.1027 55.5385 20.9977 56.8776 20.8926Z" fill="white"/>
<path d="M56.0374 28.5597C62.8905 28.5859 68.9034 33.2597 70.3213 39.719C70.5051 40.5329 70.5051 41.2681 69.5598 41.5044C68.6933 41.7408 68.3257 41.1368 68.0894 40.3754C66.1989 33.7586 61.2101 30.3977 54.3044 31.0279C53.9631 31.0541 53.543 31.1854 53.2804 31.0541C52.9128 30.8441 52.4402 30.3714 52.4664 30.0563C52.519 29.6362 52.9391 29.0586 53.3067 28.9535C54.1732 28.6647 55.1184 28.6647 56.0374 28.5597Z" fill="white"/>
<path d="M54.8296 36.3055C58.9782 36.3318 62.5491 39.0625 63.3369 42.6598C63.5207 43.4212 63.6257 44.2352 62.6542 44.4715C61.6564 44.7341 61.3413 44.0514 61.105 43.1849C60.3961 40.4542 58.0067 38.6687 55.1446 38.6162C54.6195 38.6162 54.0681 38.7737 53.5955 38.6162C53.1491 38.4586 52.5189 38.0123 52.5189 37.6709C52.4927 37.2771 52.9916 36.6994 53.4117 36.4893C53.8581 36.253 54.4882 36.3318 54.8296 36.3055Z" fill="white"/>
<path d="M22.6689 89.765C22.6689 88.745 22.8989 87.83 23.3589 87.02C23.8189 86.2 24.4439 85.56 25.2339 85.1C26.0339 84.64 26.9189 84.41 27.8889 84.41C29.0289 84.41 30.0239 84.685 30.8739 85.235C31.7239 85.785 32.3439 86.565 32.7339 87.575H31.0989C30.8089 86.945 30.3889 86.46 29.8389 86.12C29.2989 85.78 28.6489 85.61 27.8889 85.61C27.1589 85.61 26.5039 85.78 25.9239 86.12C25.3439 86.46 24.8889 86.945 24.5589 87.575C24.2289 88.195 24.0639 88.925 24.0639 89.765C24.0639 90.595 24.2289 91.325 24.5589 91.955C24.8889 92.575 25.3439 93.055 25.9239 93.395C26.5039 93.735 27.1589 93.905 27.8889 93.905C28.6489 93.905 29.2989 93.74 29.8389 93.41C30.3889 93.07 30.8089 92.585 31.0989 91.955H32.7339C32.3439 92.955 31.7239 93.73 30.8739 94.28C30.0239 94.82 29.0289 95.09 27.8889 95.09C26.9189 95.09 26.0339 94.865 25.2339 94.415C24.4439 93.955 23.8189 93.32 23.3589 92.51C22.8989 91.7 22.6689 90.785 22.6689 89.765ZM38.3508 95.135C37.5808 95.135 36.8808 94.96 36.2508 94.61C35.6308 94.26 35.1408 93.765 34.7808 93.125C34.4308 92.475 34.2558 91.725 34.2558 90.875C34.2558 90.035 34.4358 89.295 34.7958 88.655C35.1658 88.005 35.6658 87.51 36.2958 87.17C36.9258 86.82 37.6308 86.645 38.4108 86.645C39.1908 86.645 39.8958 86.82 40.5258 87.17C41.1558 87.51 41.6508 88 42.0108 88.64C42.3808 89.28 42.5658 90.025 42.5658 90.875C42.5658 91.725 42.3758 92.475 41.9958 93.125C41.6258 93.765 41.1208 94.26 40.4808 94.61C39.8408 94.96 39.1308 95.135 38.3508 95.135ZM38.3508 93.935C38.8408 93.935 39.3008 93.82 39.7308 93.59C40.1608 93.36 40.5058 93.015 40.7658 92.555C41.0358 92.095 41.1708 91.535 41.1708 90.875C41.1708 90.215 41.0408 89.655 40.7808 89.195C40.5208 88.735 40.1808 88.395 39.7608 88.175C39.3408 87.945 38.8858 87.83 38.3958 87.83C37.8958 87.83 37.4358 87.945 37.0158 88.175C36.6058 88.395 36.2758 88.735 36.0258 89.195C35.7758 89.655 35.6508 90.215 35.6508 90.875C35.6508 91.545 35.7708 92.11 36.0108 92.57C36.2608 93.03 36.5908 93.375 37.0008 93.605C37.4108 93.825 37.8608 93.935 38.3508 93.935ZM48.3656 86.63C49.3656 86.63 50.1756 86.935 50.7956 87.545C51.4156 88.145 51.7256 89.015 51.7256 90.155V95H50.3756V90.35C50.3756 89.53 50.1706 88.905 49.7606 88.475C49.3506 88.035 48.7906 87.815 48.0806 87.815C47.3606 87.815 46.7856 88.04 46.3556 88.49C45.9356 88.94 45.7256 89.595 45.7256 90.455V95H44.3606V86.78H45.7256V87.95C45.9956 87.53 46.3606 87.205 46.8206 86.975C47.2906 86.745 47.8056 86.63 48.3656 86.63ZM55.6203 87.905V92.75C55.6203 93.15 55.7053 93.435 55.8753 93.605C56.0453 93.765 56.3403 93.845 56.7603 93.845H57.7653V95H56.5353C55.7753 95 55.2053 94.825 54.8253 94.475C54.4453 94.125 54.2553 93.55 54.2553 92.75V87.905H53.1903V86.78H54.2553V84.71H55.6203V86.78H57.7653V87.905H55.6203ZM58.9092 90.86C58.9092 90.02 59.0792 89.285 59.4192 88.655C59.7592 88.015 60.2242 87.52 60.8142 87.17C61.4142 86.82 62.0792 86.645 62.8092 86.645C63.5292 86.645 64.1542 86.8 64.6842 87.11C65.2142 87.42 65.6092 87.81 65.8692 88.28V86.78H67.2492V95H65.8692V93.47C65.5992 93.95 65.1942 94.35 64.6542 94.67C64.1242 94.98 63.5042 95.135 62.7942 95.135C62.0642 95.135 61.4042 94.955 60.8142 94.595C60.2242 94.235 59.7592 93.73 59.4192 93.08C59.0792 92.43 58.9092 91.69 58.9092 90.86ZM65.8692 90.875C65.8692 90.255 65.7442 89.715 65.4942 89.255C65.2442 88.795 64.9042 88.445 64.4742 88.205C64.0542 87.955 63.5892 87.83 63.0792 87.83C62.5692 87.83 62.1042 87.95 61.6842 88.19C61.2642 88.43 60.9292 88.78 60.6792 89.24C60.4292 89.7 60.3042 90.24 60.3042 90.86C60.3042 91.49 60.4292 92.04 60.6792 92.51C60.9292 92.97 61.2642 93.325 61.6842 93.575C62.1042 93.815 62.5692 93.935 63.0792 93.935C63.5892 93.935 64.0542 93.815 64.4742 93.575C64.9042 93.325 65.2442 92.97 65.4942 92.51C65.7442 92.04 65.8692 91.495 65.8692 90.875ZM69.0459 90.875C69.0459 90.025 69.2159 89.285 69.5559 88.655C69.8959 88.015 70.3659 87.52 70.9659 87.17C71.5759 86.82 72.2709 86.645 73.0509 86.645C74.0609 86.645 74.8909 86.89 75.5409 87.38C76.2009 87.87 76.6359 88.55 76.8459 89.42H75.3759C75.2359 88.92 74.9609 88.525 74.5509 88.235C74.1509 87.945 73.6509 87.8 73.0509 87.8C72.2709 87.8 71.6409 88.07 71.1609 88.61C70.6809 89.14 70.4409 89.895 70.4409 90.875C70.4409 91.865 70.6809 92.63 71.1609 93.17C71.6409 93.71 72.2709 93.98 73.0509 93.98C73.6509 93.98 74.1509 93.84 74.5509 93.56C74.9509 93.28 75.2259 92.88 75.3759 92.36H76.8459C76.6259 93.2 76.1859 93.875 75.5259 94.385C74.8659 94.885 74.0409 95.135 73.0509 95.135C72.2709 95.135 71.5759 94.96 70.9659 94.61C70.3659 94.26 69.8959 93.765 69.5559 93.125C69.2159 92.485 69.0459 91.735 69.0459 90.875ZM80.3322 87.905V92.75C80.3322 93.15 80.4172 93.435 80.5872 93.605C80.7572 93.765 81.0522 93.845 81.4722 93.845H82.4772V95H81.2472C80.4872 95 79.9172 94.825 79.5372 94.475C79.1572 94.125 78.9672 93.55 78.9672 92.75V87.905H77.9022V86.78H78.9672V84.71H80.3322V86.78H82.4772V87.905H80.3322Z" fill="white"/>
</svg>
