<svg width="106" height="106" viewBox="0 0 106 106" fill="none" xmlns="http://www.w3.org/2000/svg">
<rect width="106" height="106" rx="10" fill="#ED225C"/>
<path d="M62.0983 47.7573C66.6389 52.2979 71.1378 56.7551 75.5951 61.1707C75.97 61.5457 76.3866 61.9206 76.7615 62.3371C78.3028 64.0451 78.4277 65.7946 77.0114 67.086C75.7201 68.3357 73.9288 68.2107 72.3875 66.7528C69.5132 63.9201 66.6805 61.0874 63.8479 58.2131C61.8067 56.1303 59.8072 54.0475 57.891 52.0063C47.1852 58.6713 36.7294 54.6723 31.7722 47.9656C26.1485 40.4674 26.94 30.0532 33.5634 23.4714C40.1452 16.973 50.601 16.2231 57.9326 21.7218C64.556 26.679 68.805 36.9682 62.0983 47.7573ZM46.8103 49.2569C53.7253 49.2569 59.2656 43.7166 59.2656 36.8432C59.2656 29.8865 53.642 24.2212 46.727 24.2629C39.812 24.2629 34.2716 29.9282 34.3133 36.9265C34.3133 43.7999 39.9369 49.2986 46.8103 49.2569Z" fill="white"/>
<path d="M31.698 95.105C31.008 95.105 30.388 94.985 29.838 94.745C29.298 94.495 28.873 94.155 28.563 93.725C28.253 93.285 28.093 92.78 28.083 92.21H29.538C29.588 92.7 29.788 93.115 30.138 93.455C30.498 93.785 31.018 93.95 31.698 93.95C32.348 93.95 32.858 93.79 33.228 93.47C33.608 93.14 33.798 92.72 33.798 92.21C33.798 91.81 33.688 91.485 33.468 91.235C33.248 90.985 32.973 90.795 32.643 90.665C32.313 90.535 31.868 90.395 31.308 90.245C30.618 90.065 30.063 89.885 29.643 89.705C29.233 89.525 28.878 89.245 28.578 88.865C28.288 88.475 28.143 87.955 28.143 87.305C28.143 86.735 28.288 86.23 28.578 85.79C28.868 85.35 29.273 85.01 29.793 84.77C30.323 84.53 30.928 84.41 31.608 84.41C32.588 84.41 33.388 84.655 34.008 85.145C34.638 85.635 34.993 86.285 35.073 87.095H33.573C33.523 86.695 33.313 86.345 32.943 86.045C32.573 85.735 32.083 85.58 31.473 85.58C30.903 85.58 30.438 85.73 30.078 86.03C29.718 86.32 29.538 86.73 29.538 87.26C29.538 87.64 29.643 87.95 29.853 88.19C30.073 88.43 30.338 88.615 30.648 88.745C30.968 88.865 31.413 89.005 31.983 89.165C32.673 89.355 33.228 89.545 33.648 89.735C34.068 89.915 34.428 90.2 34.728 90.59C35.028 90.97 35.178 91.49 35.178 92.15C35.178 92.66 35.043 93.14 34.773 93.59C34.503 94.04 34.103 94.405 33.573 94.685C33.043 94.965 32.418 95.105 31.698 95.105ZM44.6867 90.575C44.6867 90.835 44.6717 91.11 44.6417 91.4H38.0717C38.1217 92.21 38.3967 92.845 38.8967 93.305C39.4067 93.755 40.0217 93.98 40.7417 93.98C41.3317 93.98 41.8217 93.845 42.2117 93.575C42.6117 93.295 42.8917 92.925 43.0517 92.465H44.5217C44.3017 93.255 43.8617 93.9 43.2017 94.4C42.5417 94.89 41.7217 95.135 40.7417 95.135C39.9617 95.135 39.2617 94.96 38.6417 94.61C38.0317 94.26 37.5517 93.765 37.2017 93.125C36.8517 92.475 36.6767 91.725 36.6767 90.875C36.6767 90.025 36.8467 89.28 37.1867 88.64C37.5267 88 38.0017 87.51 38.6117 87.17C39.2317 86.82 39.9417 86.645 40.7417 86.645C41.5217 86.645 42.2117 86.815 42.8117 87.155C43.4117 87.495 43.8717 87.965 44.1917 88.565C44.5217 89.155 44.6867 89.825 44.6867 90.575ZM43.2767 90.29C43.2767 89.77 43.1617 89.325 42.9317 88.955C42.7017 88.575 42.3867 88.29 41.9867 88.1C41.5967 87.9 41.1617 87.8 40.6817 87.8C39.9917 87.8 39.4017 88.02 38.9117 88.46C38.4317 88.9 38.1567 89.51 38.0867 90.29H43.2767ZM45.9785 90.86C45.9785 90.02 46.1485 89.285 46.4885 88.655C46.8285 88.015 47.2935 87.52 47.8835 87.17C48.4835 86.82 49.1485 86.645 49.8785 86.645C50.5985 86.645 51.2235 86.8 51.7535 87.11C52.2835 87.42 52.6785 87.81 52.9385 88.28V86.78H54.3185V95H52.9385V93.47C52.6685 93.95 52.2635 94.35 51.7235 94.67C51.1935 94.98 50.5735 95.135 49.8635 95.135C49.1335 95.135 48.4735 94.955 47.8835 94.595C47.2935 94.235 46.8285 93.73 46.4885 93.08C46.1485 92.43 45.9785 91.69 45.9785 90.86ZM52.9385 90.875C52.9385 90.255 52.8135 89.715 52.5635 89.255C52.3135 88.795 51.9735 88.445 51.5435 88.205C51.1235 87.955 50.6585 87.83 50.1485 87.83C49.6385 87.83 49.1735 87.95 48.7535 88.19C48.3335 88.43 47.9985 88.78 47.7485 89.24C47.4985 89.7 47.3735 90.24 47.3735 90.86C47.3735 91.49 47.4985 92.04 47.7485 92.51C47.9985 92.97 48.3335 93.325 48.7535 93.575C49.1735 93.815 49.6385 93.935 50.1485 93.935C50.6585 93.935 51.1235 93.815 51.5435 93.575C51.9735 93.325 52.3135 92.97 52.5635 92.51C52.8135 92.04 52.9385 91.495 52.9385 90.875ZM57.9902 88.115C58.2302 87.645 58.5702 87.28 59.0102 87.02C59.4602 86.76 60.0052 86.63 60.6452 86.63V88.04H60.2852C58.7552 88.04 57.9902 88.87 57.9902 90.53V95H56.6252V86.78H57.9902V88.115ZM61.7109 90.875C61.7109 90.025 61.8809 89.285 62.2209 88.655C62.5609 88.015 63.0309 87.52 63.6309 87.17C64.2409 86.82 64.9359 86.645 65.7159 86.645C66.7259 86.645 67.5559 86.89 68.2059 87.38C68.8659 87.87 69.3009 88.55 69.5109 89.42H68.0409C67.9009 88.92 67.6259 88.525 67.2159 88.235C66.8159 87.945 66.3159 87.8 65.7159 87.8C64.9359 87.8 64.3059 88.07 63.8259 88.61C63.3459 89.14 63.1059 89.895 63.1059 90.875C63.1059 91.865 63.3459 92.63 63.8259 93.17C64.3059 93.71 64.9359 93.98 65.7159 93.98C66.3159 93.98 66.8159 93.84 67.2159 93.56C67.6159 93.28 67.8909 92.88 68.0409 92.36H69.5109C69.2909 93.2 68.8509 93.875 68.1909 94.385C67.5309 94.885 66.7059 95.135 65.7159 95.135C64.9359 95.135 64.2409 94.96 63.6309 94.61C63.0309 94.26 62.5609 93.765 62.2209 93.125C61.8809 92.485 61.7109 91.735 61.7109 90.875ZM75.4122 86.63C76.0322 86.63 76.5922 86.765 77.0922 87.035C77.5922 87.295 77.9822 87.69 78.2622 88.22C78.5522 88.75 78.6972 89.395 78.6972 90.155V95H77.3472V90.35C77.3472 89.53 77.1422 88.905 76.7322 88.475C76.3222 88.035 75.7622 87.815 75.0522 87.815C74.3322 87.815 73.7572 88.04 73.3272 88.49C72.9072 88.94 72.6972 89.595 72.6972 90.455V95H71.3322V83.9H72.6972V87.95C72.9672 87.53 73.3372 87.205 73.8072 86.975C74.2872 86.745 74.8222 86.63 75.4122 86.63Z" fill="white"/>
</svg>
