<svg width="40" height="40" viewBox="0 0 40 40" fill="none" xmlns="http://www.w3.org/2000/svg">
<path d="M0 19.8C13.2157 13.1922 26.2903 6.65487 39.6 0C37.3896 12.5572 35.2026 24.9029 32.9922 37.4131C28.6888 35.1321 24.4796 32.8746 20.1527 30.5701C17.9423 33.439 15.7318 36.3078 13.3568 39.3649C13.2862 38.8945 13.2157 38.6124 13.2157 38.3537C13.1922 37.2485 13.3333 36.1432 13.1922 35.0615C12.8394 32.6865 13.8271 30.9698 15.3556 29.2062C20.3173 23.5625 25.1145 17.7542 29.9822 12.0164C30.0527 11.9458 30.0998 11.8283 30.0527 11.6401C28.195 13.1686 26.3373 14.6972 24.5031 16.2492C20.6701 19.4238 16.8606 22.6219 13.0276 25.7964C12.7454 26.0316 12.134 26.2668 11.8518 26.1257C7.9247 24.0563 4.04466 21.9634 0 19.8Z" fill="#ED225C"/>
</svg>
