<svg width="106" height="106" viewBox="0 0 106 106" fill="none" xmlns="http://www.w3.org/2000/svg">
<rect width="106" height="106" rx="10" fill="#ED225C"/>
<path d="M52.4174 71C48.9832 70.0734 45.5105 69.3013 42.1149 68.2203C40.8416 67.7956 39.7611 67.6412 38.4492 68.0273C35.8639 68.838 33.2787 69.5715 30.6548 70.0734C29.6516 70.2665 28.1081 70.1506 27.6065 69.4943C27.1049 68.8766 27.2592 67.3323 27.6065 66.3672C28.3782 64.2052 29.5358 62.159 30.3847 60.0356C30.6548 59.3793 30.6162 58.4141 30.269 57.7964C20.8925 40.4618 32.7385 20.0387 52.4174 20.0001C65.9611 19.9615 77.1511 30.3854 77.9614 44.2839C78.6945 56.561 68.8937 68.3747 56.1602 70.112C54.9641 70.2665 53.7293 70.3823 52.5332 70.4981C52.5332 70.6911 52.4946 70.8456 52.4174 71ZM33.0857 64.514C33.2787 64.5526 33.433 64.5912 33.626 64.6298C34.9765 64.2824 36.3656 64.0507 37.6775 63.5488C39.8769 62.6995 41.729 63.047 43.8899 64.0121C51.2212 67.2937 58.3982 66.5988 64.8421 61.8887C71.3632 57.1015 74.3729 50.4997 73.1767 42.3922C71.9034 33.8214 66.8872 28.1076 58.7069 25.5209C50.4109 22.9342 42.9638 24.9418 37.0601 31.312C31.195 37.6435 29.6516 45.2491 33.2401 53.0863C35.0922 57.1787 36.7514 60.5761 33.0857 64.514Z" fill="white"/>
<path d="M58.5223 57.8683C57.4726 57.5573 55.9953 57.2852 54.6346 56.7798C47.9476 54.2916 43.1657 49.6652 40.3276 43.1337C39.2001 40.5289 39.55 38.0407 41.3773 35.8636C43.0879 33.8031 45.4594 34.0363 46.7424 36.4079C48.0254 38.7017 49.2695 41.0343 46.7813 43.4447C46.5091 43.7169 46.6258 44.8055 46.9368 45.272C48.6863 48.1878 51.2522 50.1706 54.3236 51.6479C55.451 52.1922 56.1119 51.8812 56.6562 50.8704C57.356 49.6263 58.1724 48.46 59.8053 48.9265C61.8658 49.5096 64.0041 50.2094 64.9372 52.3088C65.2482 52.9698 64.8205 54.2138 64.354 54.9914C63.1877 56.9353 61.166 57.6351 58.5223 57.8683Z" fill="white"/>
<path d="M28.7569 84.545L25.7269 95H24.1969L21.7669 86.585L19.2469 95L17.7319 95.015L14.8069 84.545H16.2619L18.5419 93.41L21.0619 84.545H22.5919L24.9919 93.38L27.2869 84.545H28.7569ZM34.3307 86.63C34.9507 86.63 35.5107 86.765 36.0107 87.035C36.5107 87.295 36.9007 87.69 37.1807 88.22C37.4707 88.75 37.6157 89.395 37.6157 90.155V95H36.2657V90.35C36.2657 89.53 36.0607 88.905 35.6507 88.475C35.2407 88.035 34.6807 87.815 33.9707 87.815C33.2507 87.815 32.6757 88.04 32.2457 88.49C31.8257 88.94 31.6157 89.595 31.6157 90.455V95H30.2507V83.9H31.6157V87.95C31.8857 87.53 32.2557 87.205 32.7257 86.975C33.2057 86.745 33.7407 86.63 34.3307 86.63ZM39.3354 90.86C39.3354 90.02 39.5054 89.285 39.8454 88.655C40.1854 88.015 40.6504 87.52 41.2404 87.17C41.8404 86.82 42.5054 86.645 43.2354 86.645C43.9554 86.645 44.5804 86.8 45.1104 87.11C45.6404 87.42 46.0354 87.81 46.2954 88.28V86.78H47.6754V95H46.2954V93.47C46.0254 93.95 45.6204 94.35 45.0804 94.67C44.5504 94.98 43.9304 95.135 43.2204 95.135C42.4904 95.135 41.8304 94.955 41.2404 94.595C40.6504 94.235 40.1854 93.73 39.8454 93.08C39.5054 92.43 39.3354 91.69 39.3354 90.86ZM46.2954 90.875C46.2954 90.255 46.1704 89.715 45.9204 89.255C45.6704 88.795 45.3304 88.445 44.9004 88.205C44.4804 87.955 44.0154 87.83 43.5054 87.83C42.9954 87.83 42.5304 87.95 42.1104 88.19C41.6904 88.43 41.3554 88.78 41.1054 89.24C40.8554 89.7 40.7304 90.24 40.7304 90.86C40.7304 91.49 40.8554 92.04 41.1054 92.51C41.3554 92.97 41.6904 93.325 42.1104 93.575C42.5304 93.815 42.9954 93.935 43.5054 93.935C44.0154 93.935 44.4804 93.815 44.9004 93.575C45.3304 93.325 45.6704 92.97 45.9204 92.51C46.1704 92.04 46.2954 91.495 46.2954 90.875ZM51.6471 87.905V92.75C51.6471 93.15 51.7321 93.435 51.9021 93.605C52.0721 93.765 52.3671 93.845 52.7871 93.845H53.7921V95H52.5621C51.8021 95 51.2321 94.825 50.8521 94.475C50.4721 94.125 50.2821 93.55 50.2821 92.75V87.905H49.2171V86.78H50.2821V84.71H51.6471V86.78H53.7921V87.905H51.6471ZM58.356 95.135C57.726 95.135 57.161 95.03 56.661 94.82C56.161 94.6 55.766 94.3 55.476 93.92C55.186 93.53 55.026 93.085 54.996 92.585H56.406C56.446 92.995 56.636 93.33 56.976 93.59C57.326 93.85 57.781 93.98 58.341 93.98C58.861 93.98 59.271 93.865 59.571 93.635C59.871 93.405 60.021 93.115 60.021 92.765C60.021 92.405 59.861 92.14 59.541 91.97C59.221 91.79 58.726 91.615 58.056 91.445C57.446 91.285 56.946 91.125 56.556 90.965C56.176 90.795 55.846 90.55 55.566 90.23C55.296 89.9 55.161 89.47 55.161 88.94C55.161 88.52 55.286 88.135 55.536 87.785C55.786 87.435 56.141 87.16 56.601 86.96C57.061 86.75 57.586 86.645 58.176 86.645C59.086 86.645 59.821 86.875 60.381 87.335C60.941 87.795 61.241 88.425 61.281 89.225H59.916C59.886 88.795 59.711 88.45 59.391 88.19C59.081 87.93 58.661 87.8 58.131 87.8C57.641 87.8 57.251 87.905 56.961 88.115C56.671 88.325 56.526 88.6 56.526 88.94C56.526 89.21 56.611 89.435 56.781 89.615C56.961 89.785 57.181 89.925 57.441 90.035C57.711 90.135 58.081 90.25 58.551 90.38C59.141 90.54 59.621 90.7 59.991 90.86C60.361 91.01 60.676 91.24 60.936 91.55C61.206 91.86 61.346 92.265 61.356 92.765C61.356 93.215 61.231 93.62 60.981 93.98C60.731 94.34 60.376 94.625 59.916 94.835C59.466 95.035 58.946 95.135 58.356 95.135ZM62.7729 90.86C62.7729 90.02 62.9429 89.285 63.2829 88.655C63.6229 88.015 64.0879 87.52 64.6779 87.17C65.2779 86.82 65.9429 86.645 66.6729 86.645C67.3929 86.645 68.0179 86.8 68.5479 87.11C69.0779 87.42 69.4729 87.81 69.7329 88.28V86.78H71.1129V95H69.7329V93.47C69.4629 93.95 69.0579 94.35 68.5179 94.67C67.9879 94.98 67.3679 95.135 66.6579 95.135C65.9279 95.135 65.2679 94.955 64.6779 94.595C64.0879 94.235 63.6229 93.73 63.2829 93.08C62.9429 92.43 62.7729 91.69 62.7729 90.86ZM69.7329 90.875C69.7329 90.255 69.6079 89.715 69.3579 89.255C69.1079 88.795 68.7679 88.445 68.3379 88.205C67.9179 87.955 67.4529 87.83 66.9429 87.83C66.4329 87.83 65.9679 87.95 65.5479 88.19C65.1279 88.43 64.7929 88.78 64.5429 89.24C64.2929 89.7 64.1679 90.24 64.1679 90.86C64.1679 91.49 64.2929 92.04 64.5429 92.51C64.7929 92.97 65.1279 93.325 65.5479 93.575C65.9679 93.815 66.4329 93.935 66.9429 93.935C67.4529 93.935 67.9179 93.815 68.3379 93.575C68.7679 93.325 69.1079 92.97 69.3579 92.51C69.6079 92.04 69.7329 91.495 69.7329 90.875ZM74.7846 88.295C75.0546 87.825 75.4546 87.435 75.9846 87.125C76.5246 86.805 77.1496 86.645 77.8596 86.645C78.5896 86.645 79.2496 86.82 79.8396 87.17C80.4396 87.52 80.9096 88.015 81.2496 88.655C81.5896 89.285 81.7596 90.02 81.7596 90.86C81.7596 91.69 81.5896 92.43 81.2496 93.08C80.9096 93.73 80.4396 94.235 79.8396 94.595C79.2496 94.955 78.5896 95.135 77.8596 95.135C77.1596 95.135 76.5396 94.98 75.9996 94.67C75.4696 94.35 75.0646 93.955 74.7846 93.485V98.9H73.4196V86.78H74.7846V88.295ZM80.3646 90.86C80.3646 90.24 80.2396 89.7 79.9896 89.24C79.7396 88.78 79.3996 88.43 78.9696 88.19C78.5496 87.95 78.0846 87.83 77.5746 87.83C77.0746 87.83 76.6096 87.955 76.1796 88.205C75.7596 88.445 75.4196 88.8 75.1596 89.27C74.9096 89.73 74.7846 90.265 74.7846 90.875C74.7846 91.495 74.9096 92.04 75.1596 92.51C75.4196 92.97 75.7596 93.325 76.1796 93.575C76.6096 93.815 77.0746 93.935 77.5746 93.935C78.0846 93.935 78.5496 93.815 78.9696 93.575C79.3996 93.325 79.7396 92.97 79.9896 92.51C80.2396 92.04 80.3646 91.49 80.3646 90.86ZM84.9214 88.295C85.1914 87.825 85.5914 87.435 86.1214 87.125C86.6614 86.805 87.2864 86.645 87.9964 86.645C88.7264 86.645 89.3864 86.82 89.9764 87.17C90.5764 87.52 91.0464 88.015 91.3864 88.655C91.7264 89.285 91.8964 90.02 91.8964 90.86C91.8964 91.69 91.7264 92.43 91.3864 93.08C91.0464 93.73 90.5764 94.235 89.9764 94.595C89.3864 94.955 88.7264 95.135 87.9964 95.135C87.2964 95.135 86.6764 94.98 86.1364 94.67C85.6064 94.35 85.2014 93.955 84.9214 93.485V98.9H83.5564V86.78H84.9214V88.295ZM90.5014 90.86C90.5014 90.24 90.3764 89.7 90.1264 89.24C89.8764 88.78 89.5364 88.43 89.1064 88.19C88.6864 87.95 88.2214 87.83 87.7114 87.83C87.2114 87.83 86.7464 87.955 86.3164 88.205C85.8964 88.445 85.5564 88.8 85.2964 89.27C85.0464 89.73 84.9214 90.265 84.9214 90.875C84.9214 91.495 85.0464 92.04 85.2964 92.51C85.5564 92.97 85.8964 93.325 86.3164 93.575C86.7464 93.815 87.2114 93.935 87.7114 93.935C88.2214 93.935 88.6864 93.815 89.1064 93.575C89.5364 93.325 89.8764 92.97 90.1264 92.51C90.3764 92.04 90.5014 91.49 90.5014 90.86Z" fill="white"/>
</svg>
